<svg class="icon" width="200" height="200" p-id="11323" t="1635785968155" version="1.1" viewBox="0 0 1024 1024" xmlns="http://www.w3.org/2000/svg">
 <defs>
  <style type="text/css"/>
  <style type="text/css"/>
  <style type="text/css"/>
 </defs>
 <path d="M813.21 367.87a399.57 399.57 0 0 1 112.56 184.06c14.57 91.78-12.25 138.81-12.25 138.81C872.25 777.55 725 834 725 834l-0.25 38.89a46.69 46.69 0 0 1-45.78 44.15 489.13 489.13 0 0 1-85.15-22.76c-63.61 16.36-74 10.64-74 10.64a410.86 410.86 0 0 1-45.46-5.85 343.77 343.77 0 0 1-85.4 16.22c-56.88 1.49-56.66-33.69-56.66-33.69l0.25-39c-19.84-8.46-107.69-56.24-107.69-56.24-130.37-62-123.94-178.6-123.94-178.6a286 286 0 0 1 46.48-155.35C297.24 234 518.28 249.31 518.28 249.31c165.1 5.78 294.93 118.56 294.93 118.56z" fill="#3489df" p-id="11324"/>
 <path d="m723.34 322.24c5.11-1.89 10-3.77 14.76-5.65-53.65-30.59-131.7-64.19-219.82-67.28 0 0-221-15.29-370.89 203.16a286 286 0 0 0-46.48 155.35s-6.44 116.65 123.94 178.6c0 0 87.84 47.78 107.69 56.24l-0.25 39s-0.06 13.93 14.06 23.89c-16.35-74.23-66-419.4 376.99-583.31z" fill="#EDAB38" p-id="11325"/>
 <path d="m679.29 377.69a384.74 384.74 0 0 0-156.19-59.07 146.82 146.82 0 0 0-45.88 0 397.53 397.53 0 0 0-161.87 59.12c-49 31.31-98.18 75-96.67 150 0 0-4.53 57.11 34.12 77.8 0 0 65.92 40.71 247.86 45.49 182-4.79 241.15-45.49 241.15-45.49 34.89-19.15 34.12-77.8 34.12-77.8 1.44-75.07-96.64-150.07-96.64-150.07z" fill="#D1E0E4" p-id="11326"/>
 <path d="m624.82 348a384.79 384.79 0 0 0-101.72-29.37 146.81 146.81 0 0 0-45.88 0 397.53 397.53 0 0 0-161.87 59.12c-49 31.31-98.18 75-96.67 150 0 0-4.53 57.11 34.12 77.8 0 0 15.91 9.79 53.54 20.34 0.13-1.89 19.66-250.21 276.33-272.53 16.12-1.36 30.1-3.21 42.15-5.36z" fill="#B0C7CE" p-id="11327"/>
 <path d="M672.81 929.52l-1.4-0.24A505.26 505.26 0 0 1 588 907.41c-37.85 9.5-63.26 12.79-75.77 9.83-14-1.06-28.05-2.83-41.91-5.28a358.75 358.75 0 0 1-85.48 15.77c-26.29 0.7-45.79-5.31-58.54-17.82-13.68-13.41-14-29.13-14-30.88l0.19-29.37c-28.58-13.92-93.31-49.07-99.47-52.41C78.32 733 80.58 614.44 81 604.94a300.21 300.21 0 0 1 48.9-163.13C283 218.59 505 231.27 514.33 231.92 682.27 237.79 812.56 349.35 818 354.1l0.37 0.33a414.45 414.45 0 0 1 116.79 190.95l0.38 1.72c14.52 91.43-10.33 141.68-13.7 148-37.71 78.72-152.71 132.07-187 146.54l-0.18 28.91c-1.77 32.81-28.3 58.41-60.44 59z m-83.23-53.35l4.36 1.6a475.64 475.64 0 0 0 81 21.8 31.89 31.89 0 0 0 29.84-30l0.29-48.37 9.52-3.66C716 817 856.86 762.18 895 681.84l0.51-1c0.19-0.35 23.74-44.22 10.61-128.2a384.57 384.57 0 0 0-107.84-176.12C793 372 667.84 267.18 512.78 261.75c-2.64-0.16-215.12-11.68-358 196.68a270.15 270.15 0 0 0-43.87 147v0.77c-0.21 4.32-3.76 107.65 115.43 164.29l0.73 0.37c30.17 16.41 91.24 49.15 106.41 55.62l9.14 3.9-0.31 48.9c0.11 1.64 2.21 19.7 41.33 18.66a328.33 328.33 0 0 0 81.17-15.49l3.61-1.17 3.73 0.69a397.62 397.62 0 0 0 43.8 5.63l3.27 0.23 1.08 0.6c3.69 0.33 19.51 0.62 64.85-11z m-70.25 12.08z" fill="#3A4D51" p-id="11328"/>
 <path d="M503.14 668.48h-0.39C324.67 663.78 254.68 625 247.9 621c-44.11-23.92-42.16-83.1-41.68-91.15-1.4-85.17 58.41-133.38 103.57-162.24a415.14 415.14 0 0 1 168-61.35 161.25 161.25 0 0 1 50.18 0.05A402 402 0 0 1 690 367.69l0.88 0.62c4.25 3.25 104.07 80.53 102.5 162.22 0 2.27 0.4 66.85-41.33 90.31-7.84 5-72.7 43-248.49 47.63z m-0.55-334.24a131.22 131.22 0 0 0-20.59 1.62 385.52 385.52 0 0 0-156.16 57c-42.5 27.14-91.14 67.3-89.74 137.09v0.74l-0.06 0.74c0 0.43-3.15 47.69 26.28 63.45l0.8 0.46c0.57 0.34 66.07 38.63 240 43.26 173.19-4.6 232.24-42.6 232.81-42.93l1.18-0.71c26.29-14.44 26.38-64 26.37-64.51 1.06-55.56-64.44-118.12-90.36-138.07a372.24 372.24 0 0 0-149.67-56.48 133.91 133.91 0 0 0-20.86-1.66z" fill="#3A4D51" p-id="11329"/>
 <path d="m622.89 557.69c-13.223-6e-3 -23.94-10.727-23.94-23.95v-71.83c-0.27418-13.416 10.526-24.439 23.945-24.439s24.219 11.023 23.945 24.439v71.84c0 13.226-10.724 23.946-23.95 23.94zm-239.45 0c-13.223-6e-3 -23.94-10.727-23.94-23.95v-71.83c-0.27418-13.416 10.526-24.439 23.945-24.439s24.219 11.023 23.945 24.439v71.84c-6e-3 13.223-10.727 23.94-23.95 23.94z" fill="#3a4d51" p-id="11330"/>
 <path d="m672.97 290.37 123.07-100.14c15.827-12.878 24.096-30.328 23.275-49.131-0.81521-18.794-10.409-36.577-27.002-50.087-16.204-13.185-37.194-20.446-59.1-20.446-21.905 0-42.895 7.2604-59.1 20.446l-111.89 91.046c-6.4942 5.2896-17.03 5.2896-23.525 0-6.5009-5.2842-6.5009-13.857 0-19.141l111.89-91.041c46.334-37.696 118.93-37.696 165.25 0 22.571 18.361 35.614 42.606 36.729 68.272 1.1479 26.397-10.57 50.981-33.002 69.229l-123.08 100.14z" fill="#3a4d51" stroke-width=".6253" p-id="3846"/>
 <g transform="matrix(.71106 0 0 .66101 160.97 -148.25)">
  <path d="m99.408 481.46 84.84-84.856c99.968-99.968 257.77-96.176 358.75 4.8l5.128-2.96c100.98 100.99 101.81 263.9 1.832 363.87l-84.848 84.848" fill="#3567be" p-id="3847"/>
  <path d="m473.11 863.16a16 16 0 0 1-11.312-27.312l84.848-84.848c93.568-93.568 92.752-246.66-1.832-341.25-94.592-94.576-247.67-95.408-341.25-1.832l-84.848 84.856a16 16 0 1 1-22.624-22.624l84.848-84.864c106.04-106.06 279.42-105.23 386.5 1.832 107.06 107.07 107.88 280.46 1.832 386.5l-84.848 84.856c-3.128 3.12-7.224 4.68-11.312 4.68z" fill="#3578de" p-id="3848"/>
  <path d="m451.9 849.4a23.984 23.984 0 0 1-16.968-40.968l84.848-84.848c92.616-92.624 94.064-230.86 3.368-321.58a23.984 23.984 0 0 1 0-33.936 23.984 23.984 0 0 1 33.936 0c108.25 108.25 106.77 279.32-3.368 389.46l-84.848 84.848a23.936 23.936 0 0 1-16.968 7.024z" fill="#3a4d77" p-id="3849"/>
  <path d="m107.42 536.7a24 24 0 0 1-15.592-42.256l90.56-77.368c102.93-102.31 285.05-141.15 400.62-25.576a23.984 23.984 0 0 1 0 33.936 23.984 23.984 0 0 1-33.936 0c-94.872-94.856-246.94-60.216-333.42 26.256a23.2 23.2 0 0 1-1.384 1.28l-91.264 77.968a23.84 23.84 0 0 1-15.576 5.76z" fill="#fff" p-id="3850"/>
  <path d="m107.2 481.1c33.048-33.048 134.38 21.736 239.34 126.71s159.76 206.3 126.71 239.35-141.42-14.704-246.38-119.68c-104.98-104.98-152.72-213.34-119.67-246.38z" fill="#234" p-id="3851"/>
  <path d="m443.02 873.51c-56.344 0-145.62-52.88-227.46-134.72-51.008-51-91.76-105.92-114.75-154.65-24.656-52.256-26.408-92.872-4.92-114.36 9.48-9.472 22.328-14.28 38.192-14.28 51.072 0 136.82 54.024 223.78 140.99 89.648 89.656 176.62 212.06 126.71 261.98-9.976 9.984-23.952 15.04-41.552 15.04zm-308.93-386.01c-7.08 0-12.312 1.648-15.568 4.904-8.024 8.032-9.896 33.296 11.232 78.08 21.464 45.488 59.976 97.216 108.44 145.68 86.12 86.12 166.54 125.34 204.83 125.34 6.056 0 14.248-0.984 18.928-5.664 18.864-18.864-14.672-104.68-126.71-216.73-90.92-90.92-166.54-131.62-201.15-131.62z" fill="#3a4d51" p-id="3852"/>
  <path d="m443.03 881.08h-0.016c-58.368-8e-3 -149.86-53.816-233.11-137.06-51.64-51.632-92.952-107.35-116.33-156.89-33.592-71.184-20.36-106.42-3.344-123.43a51.6 51.6 0 0 1 4.768-4.208l80.28-80.296c52.528-52.536 122.58-81.472 197.22-81.472 75.632 0 146.86 29.584 200.59 83.304 110.18 110.18 111.01 288.65 1.832 397.82l-83.12 83.128a25.104 25.104 0 0 1-1.584 1.736c-7.92 7.92-22.544 17.376-47.184 17.376zm-70.528-535.35c-61.824 0-119.82 23.936-163.28 67.408l-81.464 81.472a24.016 24.016 0 0 1-2.912 2.488c-0.232 0.168-0.472 0.336-0.672 0.536-5.392 5.4-6.432 28.224 12.808 69.008 21.08 44.672 59.032 95.608 106.86 143.44 84.504 84.504 162.48 122.99 199.18 123h8e-3c5.96 0 10.6-1.08 12.872-2.976l0.536-0.616c0.248-0.272 0.504-0.544 0.776-0.808l83.776-83.776c90.456-90.456 89.624-238.46-1.832-329.94-44.656-44.648-103.85-69.24-166.66-69.24z" fill="#3a4d51" p-id="3853"/>
  <path d="m219.83 913.4a23.984 23.984 0 0 1-16.968-40.968l140.8-140.8a23.984 23.984 0 0 1 33.936 0 23.984 23.984 0 0 1 0 33.936l-140.8 140.8a23.928 23.928 0 0 1-16.968 7.032zm-147.83-147.84a23.984 23.984 0 0 1-16.968-40.968l140.8-140.79a23.984 23.984 0 0 1 33.936 0 23.984 23.984 0 0 1 0 33.936l-140.8 140.79a23.92 23.92 0 0 1-16.968 7.032z" fill="#224d51" p-id="3854"/>
 </g>
</svg>
